<svg xmlns="http://www.w3.org/2000/svg" xmlns:xlink="http://www.w3.org/1999/xlink" viewBox="0 0 573.25 181.11"><defs><style>.cls-1{fill:url(#Degradado_sin_nombre_28);}.cls-2{fill:url(#Degradado_sin_nombre_88);}.cls-3{fill:url(#Degradado_sin_nombre_88-2);}.cls-4{fill:url(#Degradado_sin_nombre_88-3);}.cls-5{fill:url(#Degradado_sin_nombre_88-4);}.cls-6{fill:url(#Degradado_sin_nombre_88-5);}.cls-7{fill:url(#Degradado_sin_nombre_88-6);}.cls-8{fill:url(#Degradado_sin_nombre_88-7);}.cls-9{fill:url(#Degradado_sin_nombre_88-8);}.cls-10{fill:url(#Degradado_sin_nombre_88-9);}.cls-11{fill:url(#Degradado_sin_nombre_88-10);}.cls-12{fill:url(#Degradado_sin_nombre_88-11);}.cls-13{fill:url(#Degradado_sin_nombre_88-12);}.cls-14{fill:url(#Degradado_sin_nombre_88-13);}.cls-15{fill:url(#Degradado_sin_nombre_88-14);}.cls-16{fill:url(#Degradado_sin_nombre_88-15);}.cls-17{fill:url(#Degradado_sin_nombre_88-16);}</style><linearGradient id="Degradado_sin_nombre_28" x1="533.53" y1="103.3" x2="533.53" gradientUnits="userSpaceOnUse"><stop offset="0" stop-color="#345bb9"/><stop offset="0.12" stop-color="#50729d"/><stop offset="0.3" stop-color="#779376"/><stop offset="0.49" stop-color="#96ac57"/><stop offset="0.67" stop-color="#abbe42"/><stop offset="0.84" stop-color="#b9c934"/><stop offset="1" stop-color="#bdcd30"/></linearGradient><linearGradient id="Degradado_sin_nombre_88" x1="44.29" y1="147.69" x2="44.29" y2="69.58" gradientUnits="userSpaceOnUse"><stop offset="0" stop-color="#487fb7"/><stop offset="0.61" stop-color="#4981b9"/><stop offset="0.86" stop-color="#4e88c0"/><stop offset="1" stop-color="#5391c8"/></linearGradient><linearGradient id="Degradado_sin_nombre_88-2" x1="44.37" y1="148.78" x2="44.37" y2="68.49" xlink:href="#Degradado_sin_nombre_88"/><linearGradient id="Degradado_sin_nombre_88-3" x1="119.43" y1="180.03" x2="119.43" y2="88.22" xlink:href="#Degradado_sin_nombre_88"/><linearGradient id="Degradado_sin_nombre_88-4" x1="119.74" y1="181.11" x2="119.74" y2="87.13" xlink:href="#Degradado_sin_nombre_88"/><linearGradient id="Degradado_sin_nombre_88-5" x1="187.99" y1="147.69" x2="187.99" y2="88.09" xlink:href="#Degradado_sin_nombre_88"/><linearGradient id="Degradado_sin_nombre_88-6" x1="187.9" y1="148.78" x2="187.9" y2="86.92" xlink:href="#Degradado_sin_nombre_88"/><linearGradient id="Degradado_sin_nombre_88-7" x1="249.46" y1="149.09" x2="249.46" y2="88.22" xlink:href="#Degradado_sin_nombre_88"/><linearGradient id="Degradado_sin_nombre_88-8" x1="249.46" y1="150.17" x2="249.46" y2="87.13" xlink:href="#Degradado_sin_nombre_88"/><linearGradient id="Degradado_sin_nombre_88-9" x1="315.19" y1="149.09" x2="315.19" y2="54.74" xlink:href="#Degradado_sin_nombre_88"/><linearGradient id="Degradado_sin_nombre_88-10" x1="314.83" y1="150.17" x2="314.83" y2="53.57" xlink:href="#Degradado_sin_nombre_88"/><linearGradient id="Degradado_sin_nombre_88-11" x1="384" y1="149.09" x2="384" y2="88.22" xlink:href="#Degradado_sin_nombre_88"/><linearGradient id="Degradado_sin_nombre_88-12" x1="384" y1="150.17" x2="384" y2="87.13" xlink:href="#Degradado_sin_nombre_88"/><linearGradient id="Degradado_sin_nombre_88-13" x1="436.35" y1="148.96" x2="436.35" y2="54.74" xlink:href="#Degradado_sin_nombre_88"/><linearGradient id="Degradado_sin_nombre_88-14" x1="436.47" y1="150.04" x2="436.47" y2="53.56" xlink:href="#Degradado_sin_nombre_88"/><linearGradient id="Degradado_sin_nombre_88-15" x1="478.1" y1="149.47" x2="478.1" y2="71.48" xlink:href="#Degradado_sin_nombre_88"/><linearGradient id="Degradado_sin_nombre_88-16" x1="478.1" y1="150.55" x2="478.1" y2="70.14" xlink:href="#Degradado_sin_nombre_88"/></defs><title>Recurso 8</title><g id="Capa_2" data-name="Capa 2"><g id="Capa_1-2" data-name="Capa 1"><path class="cls-1" d="M571.81,1.41A4.88,4.88,0,0,0,568.41,0h0l-1.08,0c-14.57.2-26.36,4.91-34.94,14.05a41.85,41.85,0,0,0-10.64,16.47,23,23,0,0,0-1.93-2c-4.91-5.21-11.89-8-20.56-8.15l-.5,0a5.11,5.11,0,0,0-3.47,1.4,4.94,4.94,0,0,0-1.44,3.47l0,.69c.14,8.52,3,15.49,8.39,20.6a25.16,25.16,0,0,0,12.18,7.06l-9.72,26.53h9.75l-9,23.21,29.19-34H522.38L532.61,54c10.88-1.55,19.91-6,26.79-13.35,8.88-8.32,13.62-20.11,13.82-34.81,0-.56,0-1,0-1A4.86,4.86,0,0,0,571.81,1.41ZM509,39.69a17.23,17.23,0,0,1-5-9.17,16.73,16.73,0,0,1,9,4.81,17,17,0,0,1,5,9.17A16.64,16.64,0,0,1,509,39.69Zm43.55-5.86c-6.06,6.45-14.11,10.08-24.13,11,.91-10.09,4.55-18.08,10.77-23.94,6.06-6.45,14.15-10.09,24.13-11Q562,25,552.59,33.83Z"/><path class="cls-2" d="M84.81,147.69H55.13l-1.27-9.63c4.69,0,6.34-1.27,5.58-5.46L58.17,126H30.91l-3.55,6.59c-2.16,4.31-.64,5.46,4.18,5.46L29,147.69H2.5l-1.27-9.63c4.57,0,6.22-.89,8.63-5.46L35.73,84c1.52-2.91,1.27-4.82-3.68-4.82l2.54-9.63H76.06l1.14,9.63c-4.82,0-6,1.4-5.46,4.57l8.88,48.82c.76,4.44,1.9,5.46,6.72,5.46ZM53.61,92.91c-.51-3.42,0-14.58,0-14.58s-3.68,10.39-5.83,14.58L37.25,113.07H56.78Z"/><path class="cls-3" d="M85.64,148.78H54.18L52.63,137h1.23c2.31,0,3.66-.32,4.23-1s.57-1.6.29-3.16l-1.1-5.71H31.56l-3.25,6c-1,2-.88,2.77-.72,3s1.11.81,3.95.81H33l-3.11,11.81H1.55L0,137H1.23c4.07,0,5.4-.57,7.67-4.87L34.77,83.52c.84-1.61.74-2.23.61-2.45s-.75-.77-3.33-.77h-1.4l3.1-11.81H77l1.4,11.81H77.2c-2.2,0-3.59.31-4.12.93-.23.28-.52.82-.27,2.38l8.88,48.8c.68,4,1.42,4.56,5.65,4.56h1.41Zm-29.56-2.17H84l2-7.51c-4.18-.25-5.62-1.8-6.4-6.31L70.68,84a5,5,0,0,1,.75-4.14c.86-1,2.29-1.54,4.55-1.67l-.89-7.5H35.42l-2,7.53c2,.17,3.17.74,3.79,1.76.89,1.47.12,3.32-.54,4.58L10.81,133.11c-2.31,4.38-4.15,5.79-8.34,6l1,7.5H28.17l2-7.51c-1.9-.1-3.59-.5-4.4-1.8-.95-1.55-.16-3.58.64-5.18l3.87-7.19H59.07l1.44,7.47c.41,2.27.17,3.84-.75,4.95s-2.33,1.62-4.67,1.76Zm2-32.45H35.46L46.81,92.41c2.1-4.07,5.74-14.34,5.78-14.45L55,71.08l-.33,7.29c0,.11-.5,11.09,0,14.38ZM39,112H55.51l-3-18.92a64.24,64.24,0,0,1-.22-8.14c-1.16,3-2.53,6.44-3.58,8.48Z"/><path class="cls-4" d="M153.92,109.65l-6,33.86c-3.68,20.8-18.39,36.52-43.25,36.52-13.69,0-27.77-6.21-25.49-18.77,1.4-8.11,9.51-13.31,22.83-13.31a46.42,46.42,0,0,1,24.1,6.72,42,42,0,0,0,2.91-9.51l1.78-10.53a26.56,26.56,0,0,1-18.14,6.85c-14.07,0-23.84-9.13-20.67-27.52,3-17.37,15.6-25.74,29.68-25.74,8.62,0,15.47,4.06,17.88,9.13,2.79-3.68,8-8.12,13.69-9h6.6C158.86,90.5,156,97.85,153.92,109.65Zm-51.74,48.06c-5,0-8.25,1.9-8.75,4.82-.89,4.44,5.45,6.72,12.8,6.72,6.6,0,11.55-2.28,15.22-6.09A35.29,35.29,0,0,0,102.18,157.71Zm22.32-57.06c-5.84,0-10.4,3.55-12.3,14.2s1.64,14.2,7.48,14.2c6.59,0,11.16-3.55,13.06-14.2S131.09,100.65,124.5,100.65Z"/><path class="cls-5" d="M104.71,181.11c-10.18,0-19.24-3.27-23.64-8.55a13.41,13.41,0,0,1-2.91-11.49c1.53-8.89,10.46-14.21,23.89-14.21a47.71,47.71,0,0,1,23.6,6.23A42.1,42.1,0,0,0,128,145l1.28-7.63a28.24,28.24,0,0,1-16.58,5.23c-7.54,0-13.61-2.47-17.55-7.15-4.3-5.11-5.75-12.58-4.19-21.63,2.88-16.44,14.66-26.65,30.75-26.65,7.78,0,14.78,3.28,18,8.3,3-3.48,8-7.32,13.37-8.16h8.46l-.72,1.55c-.37.77-3.62,7.92-5.88,21h0l-6,33.86c-1.93,10.92-6.78,20.15-14,26.67C127.21,177.4,116.73,181.11,104.71,181.11ZM102.05,149c-12.29,0-20.42,4.64-21.76,12.42a11.37,11.37,0,0,0,2.44,9.72c4,4.8,12.43,7.78,22,7.78,22.47,0,38.24-13.32,42.18-35.63l6-33.85a98.73,98.73,0,0,1,5.38-20h-4.86C148,90.3,143,94.59,140.45,98l-1.08,1.42-.76-1.61c-2-4.23-8-8.51-16.9-8.51-15,0-25.93,9.52-28.61,24.85-1.45,8.39-.17,15.26,3.7,19.86,3.52,4.18,9,6.39,15.9,6.39a25.41,25.41,0,0,0,17.39-6.56l2.35-2.21-2.31,13.71a43,43,0,0,1-3,9.78l-.51,1.13-1.05-.67A45.16,45.16,0,0,0,102.05,149Zm4.18,21.3c-6,0-10.83-1.46-12.84-3.92a4.81,4.81,0,0,1-1-4.09c.61-3.5,4.37-5.69,9.82-5.69A36.35,36.35,0,0,1,122,162.25l1.12.71-.92,1C118.12,168.18,112.73,170.33,106.23,170.33Zm-4-11.53c-4.26,0-7.27,1.53-7.69,3.92a2.65,2.65,0,0,0,.57,2.32c1.59,1.93,5.87,3.13,11.17,3.13a19.49,19.49,0,0,0,13.46-4.81A34.36,34.36,0,0,0,102.18,158.8Zm17.5-28.67c-3,0-5.34-.91-6.86-2.7-2.15-2.54-2.7-6.71-1.69-12.76,1.81-10.17,6.19-15.11,13.37-15.11,3.54,0,6.06,1,7.71,2.93,2.13,2.54,2.65,6.65,1.6,12.55C132,125.34,127.48,130.13,119.68,130.13Zm4.82-28.4c-3.81,0-9.11,1.38-11.24,13.31-.88,5.29-.47,9,1.21,11,1.11,1.3,2.81,1.94,5.21,1.94,6.74,0,10.33-4,12-13.31.93-5.16.55-8.79-1.12-10.78C129.34,102.43,127.36,101.73,124.5,101.73Z"/><path class="cls-6" d="M209.46,113h-10.4a12.87,12.87,0,0,0,2.16-4.82c.38-2.41-.38-4.31-3.3-4.31-3.17,0-7.1,2.66-10.27,6l-3.93,22.32c-.76,4.56-.51,6,3.93,6l-2.41,9.63H159.37l-1.52-9.63c4.43,0,5.45-1.65,6.21-6L168,110.16c1.4-7.74.13-10.4-4.44-10.4l2.29-8.5,20.79-3.17c1,1.4,2.29,3.68,2,10,5.2-5,13.57-9.39,19.79-9.39,7.86,0,10.39,5.08,9.51,9.9C216.82,105.34,212.88,109.65,209.46,113Z"/><path class="cls-7" d="M186.08,148.78H158.44L156.58,137h1.27c3.72,0,4.44-1.08,5.14-5.06L166.93,110c.78-4.36.68-6.94-.31-8.13-.36-.43-1.07-1-3.07-1h-1.41L165,90.3l22.15-3.38.39.53c1.07,1.48,2.14,3.62,2.26,8.24,5.15-4.22,12.65-8,18.68-8,4.9,0,7.48,1.87,8.79,3.44A9.22,9.22,0,0,1,219,98.81c-1.14,6.75-4.91,11.16-8.81,14.92l-.31.3H197l1.19-1.7a11.89,11.89,0,0,0,2-4.37,3.2,3.2,0,0,0-.36-2.44,2.37,2.37,0,0,0-1.87-.62c-2.46,0-6,2.06-9.26,5.39l-3.88,22c-.27,1.66-.53,3.5,0,4.09.34.41,1.28.6,2.89.6H189Zm-25.79-2.17h24.1l1.88-7.52a4.51,4.51,0,0,1-3.16-1.32c-1.11-1.31-.88-3.34-.46-5.85l4-22.66.23-.23c1.82-1.9,6.54-6.3,11-6.3a4.41,4.41,0,0,1,3.52,1.38,5,5,0,0,1,.85,4.19,11.59,11.59,0,0,1-1.3,3.56h8c3.52-3.43,6.85-7.45,7.87-13.43a7.11,7.11,0,0,0-1.31-6c-1.45-1.74-3.92-2.66-7.13-2.66-5.41,0-13.6,3.9-19,9.08l-1.94,1.84.11-2.66c.22-5.45-.74-7.68-1.45-8.81l-19.43,3-1.76,6.53a5.08,5.08,0,0,1,3.34,1.69c1.48,1.77,1.71,4.73.78,9.9l-3.93,21.94c-.75,4.23-1.9,6.45-6,6.8Z"/><path class="cls-8" d="M245,149.09c-18.39,0-29.93-11.8-26.38-32,3.17-18,16.87-28.91,35.26-28.91s29.92,11.92,26.37,32C277.1,138.56,263.28,149.09,245,149.09Zm7.86-47.94c-7,0-11.79,4.44-14.2,17.5-2.28,12.81.38,17.5,7.35,17.5,6.72,0,11.8-4.43,14.08-17.5C262.39,105.84,259.6,101.15,252.88,101.15Z"/><path class="cls-9" d="M245,150.17c-9.72,0-17.49-3.13-22.46-9.06s-6.72-14.31-5-24.17c3.24-18.38,17.16-29.81,36.33-29.81,9.53,0,17.49,3.24,22.42,9.13s6.76,14.32,5,24.1C278.17,138.75,264.25,150.17,245,150.17ZM253.9,89.3c-18.05,0-31.15,10.74-34.19,28-1.62,9.21-.06,17,4.51,22.4S236,148,245,148c18.11,0,31.21-10.74,34.19-28,1.62-9.14.05-16.87-4.55-22.34S262.78,89.3,253.9,89.3ZM246,137.24c-3.16,0-5.45-.9-7-2.74-2.41-2.88-2.86-8-1.43-16,2.35-12.72,7.06-18.39,15.27-18.39,3.06,0,5.29.89,6.82,2.72,2.44,2.91,2.91,8,1.48,16C259,131.22,254.06,137.24,246,137.24Zm6.85-35c-8.88,0-11.62,8.39-13.14,16.61-1.29,7.27-1,11.94,1,14.25,1.11,1.33,2.85,2,5.33,2,4.34,0,10.41-1.72,13-16.6,1.3-7.27,1-11.94-1-14.29C257,102.87,255.26,102.24,252.88,102.24Z"/><path class="cls-10" d="M318.82,149.09c-8.24,0-14.83-4.31-17.24-9.89-3.05,3.93-8.37,8.37-13.83,9.25h-7c1.39-2.66,3.8-9.63,5.83-20.79l9-50.73c1.39-7.74.12-10.4-4.44-10.4L293.46,58l21.43-3.3c1.4,1.9,3.3,5.58.89,18.89L312.1,94.94a24.93,24.93,0,0,1,17.12-6.72c13.83,0,23.34,9.38,19.53,30.43S332.65,149.09,318.82,149.09ZM322,100.9c-6.34,0-11.16,4.18-13.57,17.75s1.15,17.76,7.61,17.76c5.71,0,10-4.31,12.43-17.76S327.83,100.9,322,100.9Z"/><path class="cls-11" d="M318.82,150.17c-7.5,0-14.29-3.56-17.46-9-3.14,3.57-8.15,7.5-13.43,8.36l-.18,0H279l.83-1.59c1.41-2.7,3.76-9.69,5.73-20.49l9-50.72c.79-4.36.69-6.94-.3-8.13-.36-.43-1.07-1-3.07-1h-1.41l2.83-10.55,22.78-3.5.39.53c1.84,2.51,3.41,6.82,1.07,19.73l-3.17,18.38a26,26,0,0,1,15.55-5.08c7.07,0,12.79,2.37,16.52,6.84,4.61,5.52,6,14.12,4.08,24.88C346.27,138.46,334.69,150.17,318.82,150.17Zm-17-13.09.73,1.69c2.39,5.52,8.92,9.24,16.25,9.24,7.08,0,24.05-2.88,28.87-29.55,1.82-10.1.58-18.09-3.61-23.1-3.31-4-8.45-6.06-14.86-6.06a23.71,23.71,0,0,0-16.37,6.43L310.48,98l4.23-24.5c2.2-12.15.71-15.93-.32-17.54L294.32,59l-1.75,6.54a5,5,0,0,1,3.34,1.68c1.47,1.77,1.71,4.73.77,9.9l-9,50.73c-1.71,9.37-3.73,16-5.21,19.52h5.19c5.28-.9,10.33-5.31,13.06-8.84Zm14.19.41c-3.1,0-5.48-1-7.06-2.85-2.5-3-3-8.28-1.61-16.18,2.26-12.72,6.91-18.64,14.63-18.64a7.61,7.61,0,0,1,6.15,2.5c2.43,2.91,2.87,8.16,1.39,16.52C327.22,131.74,323.05,137.49,316,137.49ZM322,102c-4.42,0-9.85,1.92-12.5,16.86-1.28,7.13-.89,12,1.14,14.42,1.17,1.39,2.93,2.06,5.4,2.06,3.89,0,8.69-1.91,11.37-16.86,1.32-7.47,1-12.43-.92-14.74A5.48,5.48,0,0,0,322,102Z"/><path class="cls-12" d="M379.56,149.09c-18.38,0-29.92-11.8-26.37-32,3.17-18,16.86-28.91,35.25-28.91s29.93,11.92,26.38,32C411.65,138.56,397.83,149.09,379.56,149.09Zm7.87-47.94c-7,0-11.8,4.44-14.21,17.5-2.28,12.81.39,17.5,7.36,17.5,6.72,0,11.79-4.43,14.08-17.5C396.94,105.84,394.15,101.15,387.43,101.15Z"/><path class="cls-13" d="M379.56,150.17c-9.72,0-17.48-3.13-22.46-9.06s-6.72-14.31-5-24.17c3.24-18.38,17.16-29.81,36.32-29.81,9.53,0,17.5,3.24,22.43,9.13s6.75,14.32,5,24.1C412.72,138.75,398.8,150.17,379.56,150.17Zm8.88-60.87c-18,0-31.14,10.74-34.19,28-1.62,9.21-.06,17,4.51,22.4S370.5,148,379.56,148c18.11,0,31.21-10.74,34.19-28,1.62-9.14.05-16.87-4.54-22.34S397.32,89.3,388.44,89.3Zm-7.86,47.94c-3.16,0-5.45-.9-7-2.74-2.41-2.88-2.87-8-1.43-16,2.34-12.72,7-18.39,15.27-18.39,3.06,0,5.29.89,6.82,2.72,2.44,2.91,2.91,8,1.47,16C393.56,131.22,388.61,137.24,380.58,137.24Zm6.85-35c-8.88,0-11.62,8.39-13.14,16.61-1.3,7.27-1,11.94,1,14.25,1.1,1.33,2.85,2,5.33,2,4.34,0,10.41-1.72,13-16.6,1.29-7.27,1-11.94-1-14.29C391.49,102.87,389.81,102.24,387.43,102.24Z"/><path class="cls-14" d="M450.33,144.27c-2.67,2.41-8.12,4.69-14.21,4.69-10.65,0-17.5-5.71-15.09-19.53l9.26-52.5c1.39-7.74.13-10.4-4.44-10.4L428.26,58l21.94-3.3c1.27,1.9,3.17,5.83.89,18.89l-9.89,56.31c-.89,5.2.88,7.73,4.31,7.73,1.9,0,4.56-1.14,6.46-2.28Z"/><path class="cls-15" d="M436.12,150c-5.95,0-10.58-1.76-13.39-5.1-3-3.6-4-8.88-2.77-15.69l9.26-52.51c.79-4.36.69-6.94-.3-8.13-.36-.43-1.07-1-3.07-1h-1.43l3-10.55,23.31-3.51.38.58c1.66,2.48,3.28,7,1,19.68l-9.89,56.31c-.43,2.53-.2,4.42.68,5.46a3.16,3.16,0,0,0,2.57,1,14,14,0,0,0,5.91-2.13l2.06-1.23-2.16,11.6-.27.24C448.32,147.55,442.64,150,436.12,150Zm-8.86-84.5a5,5,0,0,1,3.32,1.68c1.48,1.77,1.71,4.73.78,9.9l-9.26,52.5c-1.08,6.15-.3,10.84,2.29,13.92,2.42,2.88,6.36,4.34,11.73,4.34,5.73,0,10.69-2.06,13.21-4.18l1.17-6.3a12.86,12.86,0,0,1-5,1.36,5.32,5.32,0,0,1-4.23-1.77c-1.32-1.57-1.7-4-1.15-7.23L450,73.45c2.07-11.83.6-15.87-.36-17.54L429.11,59Z"/><path class="cls-16" d="M501.56,102H483.68l-4.06,23.08c-1.65,9.13,1.52,11.79,6.85,11.79a18.46,18.46,0,0,0,10.27-3.67L495,143.51a28.13,28.13,0,0,1-17.88,6c-12.3,0-21.05-6.09-17.62-24.6L463.51,102h-11l2.16-12.43h11l2.54-14.45,20.92-3.68L486,89.61h17.75Z"/><path class="cls-17" d="M477.08,150.55c-7.14,0-12.41-2-15.67-5.9-3.65-4.38-4.66-11.1-3-20l3.83-21.55h-11l2.54-14.59h11l2.51-14.31,23.19-4.08-3.21,18.39H505l-2.53,14.59H484.59l-3.9,22.19c-.77,4.25-.48,7.21.85,8.81,1,1.15,2.58,1.71,4.93,1.71a17.49,17.49,0,0,0,9.59-3.44l2.24-1.81L496,144.09l-.31.26A29.43,29.43,0,0,1,477.08,150.55ZM453.77,101h11l-4.29,24.1c-1.52,8.22-.66,14.34,2.55,18.2,2.83,3.4,7.54,5.13,14,5.13A27.17,27.17,0,0,0,494,142.92l1.28-7.4a19.76,19.76,0,0,1-8.78,2.48c-3,0-5.19-.82-6.59-2.49-1.79-2.15-2.23-5.61-1.33-10.58l4.22-24h17.88l1.78-10.26H484.67l3.13-17.89-18.66,3.28L466.58,90.7h-11Z"/></g></g></svg>