<svg xmlns="http://www.w3.org/2000/svg" xmlns:xlink="http://www.w3.org/1999/xlink" viewBox="0 0 424.44 301.93"><defs><style>.cls-1{fill:none;}.cls-2{fill:#c92373;}.cls-3{fill:#2e006c;}.cls-4{fill:#b1132f;}.cls-5{fill:#f5cd21;}.cls-6{fill:#009bdc;}.cls-7{fill:#c8d51e;}.cls-8{fill:#8e498c;}.cls-9{fill:#005db4;}.cls-10{fill:#6c9b3b;}.cls-11{fill:#4f9dd4;}.cls-12{fill:#98267f;}.cls-13{clip-path:url(#clip-path);}.cls-14{clip-path:url(#clip-path-2);}.cls-15{fill:url(#Degradado_sin_nombre_7);}</style><clipPath id="clip-path" transform="translate(-0.97)"><path class="cls-1" d="M31,128.09A113.79,113.79,0,0,0,.54,143.68H147.71a113.28,113.28,0,0,0-29.66-15.34,134.15,134.15,0,0,0-43.92-7.24,134.38,134.38,0,0,0-43.18,7"/></clipPath><clipPath id="clip-path-2" transform="translate(-0.97)"><rect class="cls-1" y="120.44" width="148.39" height="23.89"/></clipPath><linearGradient id="Degradado_sin_nombre_7" x1="95.4" y1="120.44" x2="95.4" y2="144.33" gradientUnits="userSpaceOnUse"><stop offset="0" stop-color="#1c8fc8"/><stop offset="0.13" stop-color="#1c8fc8" stop-opacity="0.82"/><stop offset="0.35" stop-color="#1c8fc8" stop-opacity="0.53"/><stop offset="0.56" stop-color="#1c8fc8" stop-opacity="0.3"/><stop offset="0.74" stop-color="#1c8fc8" stop-opacity="0.14"/><stop offset="0.9" stop-color="#1c8fc8" stop-opacity="0.04"/><stop offset="1" stop-color="#1c8fc8" stop-opacity="0"/></linearGradient></defs><title>ENGIEFACTORYldpi</title><g id="Capa_2" data-name="Capa 2"><g id="Capa_1-2" data-name="Capa 1"><path class="cls-2" d="M311.59,61.21a123.27,123.27,0,0,0-12.64-1c-19.73-.48-37.31,5.55-53.68,18.47a80.61,80.61,0,0,0-17.46,19.19,6.15,6.15,0,1,0,10.28,6.74,68.37,68.37,0,0,1,14.79-16.28c14.22-11.22,28.77-16.25,45.76-15.83a111.09,111.09,0,0,1,11.37.86,6.15,6.15,0,1,1,1.57-12.19" transform="translate(-0.97)"/><path class="cls-3" d="M391.82,130.61A107.44,107.44,0,0,0,375,97.19a6.15,6.15,0,1,1-9.82,7.4,95.14,95.14,0,0,1,14.83,29.61,102.38,102.38,0,0,1,4.26,30.39c-.19,20.3-13,58.29-47.4,79.76a6.15,6.15,0,1,0,6.5,10.43c36.17-22.56,52.93-62.5,53.2-90.07A114.89,114.89,0,0,0,391.82,130.61Z" transform="translate(-0.97)"/><path class="cls-4" d="M370.15,107a6.15,6.15,0,0,0,4.9-9.85,92.16,92.16,0,0,0-9.23-10.51,89.2,89.2,0,0,0-6.9-6.08q-1.8-1.42-3.66-2.75a95.58,95.58,0,0,0-43.66-16.64A6.15,6.15,0,1,0,310,73.41c23.31,3,41.89,13.5,55.21,31.18A6.14,6.14,0,0,0,370.15,107Z" transform="translate(-0.97)"/><path class="cls-5" d="M280,272.61h-1.51a128.09,128.09,0,0,1-35.57-6.12,116.43,116.43,0,0,1-41.71-23.3,145.52,145.52,0,0,1-34-43.48,6.15,6.15,0,0,1,10.94-5.61,133.12,133.12,0,0,0,31.13,39.78,103.17,103.17,0,0,0,37.45,20.91c8,2.59,20.66,5.4,31.94,5.53A107.55,107.55,0,0,0,316.81,254,6.15,6.15,0,1,1,321,265.57,119.35,119.35,0,0,1,280,272.61Z" transform="translate(-0.97)"/><path class="cls-6" d="M189.49,49.79a145.54,145.54,0,0,0-28.11,49.62A6.15,6.15,0,1,0,173,103.32a135.15,135.15,0,0,1,25.73-45.46,6.15,6.15,0,0,1-9.27-8.07" transform="translate(-0.97)"/><path class="cls-7" d="M304.08,0H304C266.72.31,233,11.88,206.39,33.49A6.15,6.15,0,0,1,214.14,43c24.39-19.82,55.5-30.45,90-30.73a6.15,6.15,0,0,0,0-12.29Z" transform="translate(-0.97)"/><polyline class="cls-8" points="213.17 43.03 213.17 43.03 213.17 43.03"/><path class="cls-9" d="M215,34.38a6.15,6.15,0,0,0-8.65-.89c-3.09,2.52-6.11,5.19-9,8s-5.4,5.45-7.92,8.35a6.15,6.15,0,1,0,9.27,8.07c2.29-2.63,4.71-5.18,7.19-7.58s5.36-5,8.18-7.25h0A6.15,6.15,0,0,0,215,34.38Z" transform="translate(-0.97)"/><path class="cls-10" d="M268,241.41a6.15,6.15,0,0,0,.8-12.24c-22.6-3-40.9-13.76-54.41-31.94a6.15,6.15,0,1,0-9.87,7.33q2.88,3.87,6,7.37a93.11,93.11,0,0,0,10.12,9.62q1.79,1.46,3.64,2.82a92.24,92.24,0,0,0,42.85,17A6.21,6.21,0,0,0,268,241.41Z" transform="translate(-0.97)"/><path class="cls-11" d="M254.26,299.69a6.21,6.21,0,0,1-1.26-.13,173.93,173.93,0,0,1-50.71-19.68,6.15,6.15,0,1,1,6.1-10.67,161.68,161.68,0,0,0,47.11,18.32,6.15,6.15,0,0,1-1.25,12.17Z" transform="translate(-0.97)"/><path class="cls-2" d="M365.26,267.79a6.15,6.15,0,0,1,.92-8.64C347.78,274,326.67,283.44,301.62,288c-7.74,1.4-15.8,1.58-26.34,1.68a6.15,6.15,0,0,0,.06,12.29h.06c11.15-.11,19.71-.31,28.4-1.88,27.12-4.89,50.05-15.15,70.09-31.34a6.15,6.15,0,0,1-8.65-.92Z" transform="translate(-0.97)"/><path class="cls-5" d="M389.93,253.74c10.23-11.19,18.35-24.4,24.82-40.39,7.28-18,10.67-33.83,10.67-49.89a144.09,144.09,0,0,0-.92-16.22,6.15,6.15,0,0,1-5.41,6.81,6.23,6.23,0,0,1-.7,0,6.15,6.15,0,0,1-6.1-5.45,131.14,131.14,0,0,1,.84,14.83c0,14.42-3.11,28.81-9.77,45.28-5.91,14.61-13.27,26.62-22.5,36.7a6.15,6.15,0,0,1,9.07,8.3" transform="translate(-0.97)"/><path class="cls-4" d="M389.54,245.06a6.15,6.15,0,0,0-8.68.39c-1.12,1.22-2.28,2.43-3.46,3.61a147.39,147.39,0,0,1-11.22,10.09,6.15,6.15,0,0,0,7.73,9.56,158.7,158.7,0,0,0,12.17-10.94c1.31-1.31,2.61-2.66,3.86-4A6.15,6.15,0,0,0,389.54,245.06Z" transform="translate(-0.97)"/><path class="cls-6" d="M397,89.12a6.15,6.15,0,0,1,8.44,2.08C382.27,52.87,343.51,30,301.78,30a138.82,138.82,0,0,0-42.44,6.71,6.15,6.15,0,1,0,3.8,11.69,126.38,126.38,0,0,1,38.63-6.11c37.4,0,72.22,20.67,93.16,55.28A6.15,6.15,0,0,1,397,89.12Z" transform="translate(-0.97)"/><polyline class="cls-12" points="404.48 91.2 404.48 91.19 404.48 91.2"/><path class="cls-6" d="M418.38,154.09a6.23,6.23,0,0,0,.7,0,6.15,6.15,0,0,0,5.41-6.81,137.69,137.69,0,0,0-19-56h0a6.15,6.15,0,0,0-10.52,6.37,125.46,125.46,0,0,1,17.34,51.08A6.15,6.15,0,0,0,418.38,154.09Z" transform="translate(-0.97)"/><path class="cls-7" d="M267.17,241.36a112.89,112.89,0,0,0,12.09.94l2.36,0c28.55,0,47.74-12.85,58.9-23.79,17.75-17.41,25.62-39.88,25.55-54.41,0-7.82-1.67-34.86-20.9-54.71a6.15,6.15,0,0,1-8.83,8.55c12.74,13.16,17.36,32.51,17.43,46.22.06,11.56-6.76,30.75-21.87,45.57-9.77,9.58-26.8,20.91-52.35,20.25a100.52,100.52,0,0,1-10.77-.83,6.15,6.15,0,0,1-.8,12.24,6.21,6.21,0,0,1-.82-.06" transform="translate(-0.97)"/><path class="cls-6" d="M326.76,96.33A74.73,74.73,0,0,0,297,89.81a49.59,49.59,0,0,0-26,6.57,6.15,6.15,0,1,0,6,10.75,37.73,37.73,0,0,1,19.71-5,62.53,62.53,0,0,1,24.88,5.38,6.15,6.15,0,0,1,5.17-11.15" transform="translate(-0.97)"/><path class="cls-9" d="M345,118.1a6.15,6.15,0,0,0,.14-8.69q-2-2.05-4.14-3.9a61.56,61.56,0,0,0-14.28-9.18,6.15,6.15,0,0,0-5.17,11.15A49.33,49.33,0,0,1,336.35,118a6.15,6.15,0,0,0,8.69.14Z" transform="translate(-0.97)"/><path class="cls-10" d="M197.11,107.94a6.15,6.15,0,0,1-5.68-8.49,107.27,107.27,0,0,1,45-52A6.15,6.15,0,1,1,242.7,58a95.08,95.08,0,0,0-39.91,46.12A6.15,6.15,0,0,1,197.11,107.94Z" transform="translate(-0.97)"/><path class="cls-6" d="M288.42,171.59h7.66V159c0-4.92,1.94-9,7.56-9a14,14,0,0,1,2.76.27v-7.13a5.73,5.73,0,0,0-1.67-.27,9.88,9.88,0,0,0-8.92,5.94h-.11v-5.18h-7.28ZM262.2,157.65c0-4.49,1.57-9,6.76-9s6.81,4.49,6.81,9-1.57,8.92-6.81,8.92-6.76-4.49-6.76-8.92m-7.67,0c0,8.86,5.67,14.69,14.42,14.69s14.48-5.83,14.48-14.69-5.67-14.74-14.48-14.74-14.42,5.83-14.42,14.74m-8.43-22.36h-7.66v8.37h-4.65v5.13h4.65v16.48c0,5.56,4.1,6.64,8.8,6.64a29.39,29.39,0,0,0,4.48-.27v-6a11.87,11.87,0,0,1-2.38.22c-2.59,0-3.24-.65-3.24-3.24V148.79h5.62v-5.13H246.1Zm-14.21,18.2c-.49-7.13-6.54-10.58-13.13-10.58-9.07,0-14.25,6.42-14.25,15.12,0,8.38,5.67,14.31,14.09,14.31,7.35,0,12.48-4,13.45-11.45h-7.4c-.49,3.41-2.54,5.68-6.1,5.68-4.81,0-6.38-4.81-6.38-8.81s1.62-9.08,6.54-9.08c3.19,0,5.19,1.68,5.67,4.81Zm-50.19-1.24c.27-3,2.16-4.22,5.08-4.22,2.7,0,5,.49,5,3.79,0,3.14-4.38,3-9.08,3.68s-9.5,2.16-9.5,8.48c0,5.72,4.21,8.37,9.5,8.37,3.41,0,7-.92,9.41-3.45a11.42,11.42,0,0,0,.54,2.7h7.77c-.7-1.13-1-3.67-1-6.21V150.84c0-6.69-6.69-7.93-12.26-7.93-6.27,0-12.7,2.16-13.13,9.34Zm10.06,8.53c0,1.68-.22,6.43-6.22,6.43-2.49,0-4.7-.7-4.7-3.57s2.16-3.62,4.54-4.11,5.08-.48,6.38-1.62ZM158,171.59h7.67v-22.8H171v-5.13h-5.29V142c0-2.33.86-3.19,2.92-3.19a23.7,23.7,0,0,1,2.81.16v-5.72c-1.3-.05-2.7-.21-4.05-.21-6.26,0-9.34,3.56-9.34,8.48v2.16h-4.59v5.13H158Z" transform="translate(-0.97)"/><path class="cls-6" d="M337.41,142.84h-7.94L323.37,162h-.11l-6.32-19.13h-8.21l9.83,26.2c.86,2.22,0,5-2.65,5.24a40.71,40.71,0,0,1-4.49-.27v6.31a45.48,45.48,0,0,0,4.7.27c5.29,0,7.94-1.83,9.61-6.31Z" transform="translate(-0.97)"/><path class="cls-6" d="M63.71,147.78c-1.38,0-2.09,1.13-2.28,2.49-.2,1.52-1,6.75-1.17,8.09-.11.8-.16,1.64-.94,2s-1.71-.18-2.52-.87L44.11,148.66a3.59,3.59,0,0,0-2.36-.88c-1.79,0-3.52,1.12-3.52,3.84V168.5a2,2,0,0,0,2,2.16,2.15,2.15,0,0,0,2.19-2s1.31-8,1.47-8.95.35-1.86,1.36-2.17,1.78.25,3.06,1.37,12,10.78,12,10.78a3.47,3.47,0,0,0,2.58,1c1.05,0,3-.43,3-3.65V150.2a2.16,2.16,0,0,0-2.14-2.42" transform="translate(-0.97)"/><path class="cls-6" d="M140.31,165.78c-9.33,2-20-.14-20-6.74,0-5,4.62-7,8.28-7.31,3.82-.31,6.81.49,8.35,2.09,1,1,.69,2.35-1.2,2.47s-5,.2-7.72.3c-1.54.06-2.36.89-2.36,2,0,.88.66,1.88,2.43,1.89,2.53,0,9,.06,12.2.06,2.11,0,3.15-1.17,3.15-3.61,0-3.85-3.49-9.7-13.71-9.7-9.26,0-16,4.61-16,12.16,0,10.69,15.73,13.95,27.26,10,1.09-.37,2.08-1.16,1.76-2.38s-1.16-1.49-2.49-1.2" transform="translate(-0.97)"/><path class="cls-6" d="M32.06,165.78c-9.33,2-20-.14-20-6.74,0-5,4.62-7,8.27-7.31,3.82-.31,6.81.49,8.35,2.09,1,1,.69,2.35-1.2,2.47s-5,.2-7.71.3c-1.54.06-2.36.89-2.36,2,0,.88.66,1.88,2.43,1.89,2.54,0,9,.06,12.19.06,2.11,0,3.16-1.17,3.16-3.61,0-3.85-3.49-9.7-13.71-9.7-9.26,0-16,4.61-16,12.16,0,10.69,15.73,13.95,27.26,10,1.09-.37,2.08-1.16,1.76-2.38s-1.16-1.49-2.49-1.2" transform="translate(-0.97)"/><path class="cls-6" d="M104.33,155.49c.2,5.83.75,10.67.91,12.36.2,2.19,1.33,2.82,2.46,2.82s2.24-.58,2.44-2.79c.18-1.87.73-7.63,1-13.34l-.43-.38-6.08,1-.29.36" transform="translate(-0.97)"/><path class="cls-6" d="M107.71,147.23a3.36,3.36,0,0,0-3.56,3.53c0,.25,0,.93.08,1.79l.41.35,6.34-1,.31-.34,0-.75a3.4,3.4,0,0,0-3.6-3.54" transform="translate(-0.97)"/><path class="cls-6" d="M98.4,156.53l-12.81.06c-2,0-2.53,1.09-2.53,2s.54,1.79,2.43,1.89l8.22.42c2.28.11,2.31,1.28,1.54,2.29-1.54,2-5.3,3.33-9.2,3.33-5.1,0-10.71-2.9-10.71-7.5,0-4.32,4.8-9.06,19.06-7.06,1.25.18,2.49,0,2.8-1.2s-.48-2-2.1-2.46a34.33,34.33,0,0,0-9-1.05c-9.6,0-17.29,4.59-17.29,12,0,7.9,7.67,11.77,17.23,11.77,10.67,0,15.87-5.81,15.87-10.89,0-2.59-1.31-3.57-3.53-3.57" transform="translate(-0.97)"/><g class="cls-13"><g class="cls-14"><rect class="cls-15" y="120.44" width="190.8" height="23.89"/></g></g></g></g></svg>